<?xml version="1.0" encoding="UTF-8"?>
<!-- Created with Inkscape (http://www.inkscape.org/) -->
<svg width="499.15" height="499.15" version="1.1" viewBox="0 0 499.15 499.15" xmlns="http://www.w3.org/2000/svg">
 <g transform="matrix(.49356 0 0 .49356 2.7921 2.7921)" fill="none" stroke="#ebaf36">
  <rect x="-1.5259e-5" width="250" height="250"/>
  <g stroke-width="11.314">
   <rect x="-3.132e-6" width="1e3" height="500"/>
   <rect transform="rotate(-90)" x="-1e3" y="500" width="1e3" height="500"/>
   <rect transform="rotate(-90)" x="-1e3" width="1e3" height="500"/>
   <rect y="500" width="1e3" height="500"/>
  </g>
  <rect x="250" y="-3.132e-6" width="250" height="250"/>
  <rect x="-1e-5" y="250" width="250" height="250"/>
  <rect x="250" y="250" width="250" height="250"/>
  <rect x="500" y="-3.132e-6" width="250" height="250"/>
  <rect x="750" y="-3.132e-6" width="250" height="250"/>
  <rect x="500" y="250" width="250" height="250"/>
  <rect x="750" y="250" width="250" height="250"/>
  <rect x="1.3654e-6" y="500" width="250" height="250"/>
  <rect x="250" y="500" width="250" height="250"/>
  <rect x="1.6624e-5" y="750" width="250" height="250"/>
  <rect x="250" y="750" width="250" height="250"/>
  <rect x="500" y="500" width="250" height="250"/>
  <rect x="750" y="500" width="250" height="250"/>
  <rect x="500" y="750" width="250" height="250"/>
  <rect x="750" y="750" width="250" height="250"/>
 </g>
 <g font-family="sans-serif">
  <g font-size="96px">
   <g transform="matrix(.49356 0 0 .49356 2.7921 2.7921)">
    <text x="93.617172" y="159.99219" style="line-height:1.25" xml:space="preserve"><tspan x="93.617172" y="159.99219" fill="#ebaf36" font-size="96px">1</tspan></text>
    <text x="343.61719" y="159.99219" style="line-height:1.25" xml:space="preserve"><tspan x="343.61719" y="159.99219" fill="#ebaf36" font-size="96px">2</tspan></text>
    <text x="93.61718" y="409.99219" style="line-height:1.25" xml:space="preserve"><tspan x="93.61718" y="409.99219" fill="#ebaf36" font-size="96px">3</tspan></text>
    <text x="343.61719" y="409.99219" style="line-height:1.25" xml:space="preserve"><tspan x="343.61719" y="409.99219" fill="#ebaf36" font-size="96px">4</tspan></text>
   </g>
   <g transform="matrix(.49356 0 0 .49356 247.11 2.7921)">
    <text x="93.617172" y="159.99219" style="line-height:1.25" xml:space="preserve"><tspan x="93.617172" y="159.99219" fill="#ebaf36" font-size="96px">1</tspan></text>
    <text x="343.61719" y="159.99219" style="line-height:1.25" xml:space="preserve"><tspan x="343.61719" y="159.99219" fill="#ebaf36" font-size="96px">2</tspan></text>
    <text x="93.61718" y="409.99219" style="line-height:1.25" xml:space="preserve"><tspan x="93.61718" y="409.99219" fill="#ebaf36" font-size="96px">3</tspan></text>
    <text x="343.61719" y="409.99219" style="line-height:1.25" xml:space="preserve"><tspan x="343.61719" y="409.99219" fill="#ebaf36" font-size="96px">4</tspan></text>
   </g>
   <g transform="matrix(.49356 0 0 .49356 3.2856 249.08)">
    <text x="93.617172" y="159.99219" style="line-height:1.25" xml:space="preserve"><tspan x="93.617172" y="159.99219" fill="#ebaf36" font-size="96px">1</tspan></text>
    <text x="343.61719" y="159.99219" style="line-height:1.25" xml:space="preserve"><tspan x="343.61719" y="159.99219" fill="#ebaf36" font-size="96px">2</tspan></text>
    <text x="93.61718" y="409.99219" style="line-height:1.25" xml:space="preserve"><tspan x="93.61718" y="409.99219" fill="#ebaf36" font-size="96px">3</tspan></text>
    <text x="343.61719" y="409.99219" style="line-height:1.25" xml:space="preserve"><tspan x="343.61719" y="409.99219" fill="#ebaf36" font-size="96px">4</tspan></text>
   </g>
   <g transform="matrix(.49356 0 0 .49356 247.6 249.08)">
    <text x="93.617172" y="159.99219" style="line-height:1.25" xml:space="preserve"><tspan x="93.617172" y="159.99219" fill="#ebaf36" font-size="96px">1</tspan></text>
    <text x="343.61719" y="159.99219" style="line-height:1.25" xml:space="preserve"><tspan x="343.61719" y="159.99219" fill="#ebaf36" font-size="96px">2</tspan></text>
    <text x="93.61718" y="409.99219" style="line-height:1.25" xml:space="preserve"><tspan x="93.61718" y="409.99219" fill="#ebaf36" font-size="96px">3</tspan></text>
    <text x="343.61719" y="409.99219" style="line-height:1.25" xml:space="preserve"><tspan x="343.61719" y="409.99219" fill="#ebaf36" font-size="96px">4</tspan></text>
   </g>
  </g>
  <g transform="matrix(.49356 0 0 .49356 2.7921 2.7921)" font-size="192px">
   <text x="185.97028" y="319.09995" style="line-height:1.25" xml:space="preserve"><tspan x="185.97028" y="319.09995" fill="#ebaf36" font-size="192px">1</tspan></text>
   <text x="686.86072" y="319.09995" style="line-height:1.25" xml:space="preserve"><tspan x="686.86072" y="319.09995" fill="#ebaf36" font-size="192px">2</tspan></text>
   <text x="185.97028" y="819.68884" style="line-height:1.25" xml:space="preserve"><tspan x="185.97028" y="819.68884" fill="#ebaf36" font-size="192px">3</tspan></text>
   <text x="686.86072" y="819.68884" style="line-height:1.25" xml:space="preserve"><tspan x="686.86072" y="819.68884" fill="#ebaf36" font-size="192px">4</tspan></text>
  </g>
 </g>
</svg>
