<svg id="grid-plan" viewBox="1 1 6 6" xmlns="http://www.w3.org/2000/svg">
  <style>
      #grid-plan {
          --stroke-width:   .04;
          --black:          black;
          --white:          white;
          --gray:           gray;
          width:            60%;
          height:           auto;
          stroke-width:     var(--stroke-width);
          stroke:           var(--black);
          stroke-linecap:   square;
          fill:             var(--white); 
       }
      #outer-border { fill : var(--white); }
      #inner-block { fill : var(--gray); }
  </style>

<g id="outer-border">
    <rect x="1" y="1" width="1" height="1" /> 
    <rect x="2" y="1" width="1" height="1" /> 
    <rect x="3" y="1" width="1" height="1" /> 
    <rect x="4" y="1" width="1" height="1" /> 
    <rect x="5" y="1" width="1" height="1" /> 
    <rect x="6" y="1" width="1" height="1" /> 

    <rect x="1" y="2" width="1" height="1" /> 
    <rect x="6" y="2" width="1" height="1" /> 
    
    <rect x="1" y="3" width="1" height="1" /> 
    <rect x="6" y="3" width="1" height="1" /> 

    <rect x="1" y="4" width="1" height="1" /> 
    <rect x="6" y="4" width="1" height="1" /> 

    <rect x="1" y="5" width="1" height="1" /> 
    <rect x="6" y="5" width="1" height="1" /> 
    
    <rect x="1" y="6" width="1" height="1" /> 
    <rect x="2" y="6" width="1" height="1" /> 
    <rect x="3" y="6" width="1" height="1" /> 
    <rect x="4" y="6" width="1" height="1" /> 
    <rect x="5" y="6" width="1" height="1" /> 
    <rect x="6" y="6" width="1" height="1" /> 
</g>

<g id="inner-block">
    <rect x="2" y="2" width="1" height="1" /> 
    <rect x="3" y="2" width="1" height="1" /> 
    <rect x="4" y="2" width="1" height="1" /> 
    <rect x="5" y="2" width="1" height="1" /> 

    <rect x="2" y="3" width="1" height="1" /> 
    <rect x="3" y="3" width="1" height="1" /> 
    <rect x="4" y="3" width="1" height="1" /> 
    <rect x="5" y="3" width="1" height="1" /> 

    <rect x="2" y="4" width="1" height="1" /> 
    <rect x="3" y="4" width="1" height="1" /> 
    <rect x="4" y="4" width="1" height="1" /> 
    <rect x="5" y="4" width="1" height="1" /> 

    <rect x="2" y="5" width="1" height="1" /> 
    <rect x="3" y="5" width="1" height="1" /> 
    <rect x="4" y="5" width="1" height="1" /> 
    <rect x="5" y="5" width="1" height="1" /> 
</g>

</svg>
