<?xml version="1.0" encoding="UTF-8" standalone="no"?>
<svg
   xmlns:dc="http://purl.org/dc/elements/1.1/"
   xmlns:cc="http://creativecommons.org/ns#"
   xmlns:rdf="http://www.w3.org/1999/02/22-rdf-syntax-ns#"
   xmlns:svg="http://www.w3.org/2000/svg"
   xmlns="http://www.w3.org/2000/svg"
   xmlns:sodipodi="http://sodipodi.sourceforge.net/DTD/sodipodi-0.dtd"
   xmlns:inkscape="http://www.inkscape.org/namespaces/inkscape"
   width="103.21mm"
   height="20.772mm"
   version="1.1"
   viewBox="0 0 103.21 20.772"
   fill="#ebaf36"
   id="svg18"
   sodipodi:docname="ajsmith.svg"
   inkscape:version="0.92.5 (2060ec1f9f, 2020-04-08)">
  <metadata
     id="metadata24">
    <rdf:RDF>
      <cc:Work
         rdf:about="">
        <dc:format>image/svg+xml</dc:format>
        <dc:type
           rdf:resource="http://purl.org/dc/dcmitype/StillImage" />
      </cc:Work>
    </rdf:RDF>
  </metadata>
  <defs
     id="defs22" />
  <sodipodi:namedview
     pagecolor="#ffffff"
     bordercolor="#666666"
     borderopacity="1"
     objecttolerance="10"
     gridtolerance="10"
     guidetolerance="10"
     inkscape:pageopacity="0"
     inkscape:pageshadow="2"
     inkscape:window-width="1920"
     inkscape:window-height="1080"
     id="namedview20"
     showgrid="false"
     showguides="false"
     inkscape:guide-bbox="true"
     inkscape:zoom="3.5581985"
     inkscape:cx="231.86164"
     inkscape:cy="22.939102"
     inkscape:window-x="0"
     inkscape:window-y="0"
     inkscape:window-maximized="0"
     inkscape:current-layer="svg18">
    <sodipodi:guide
       position="83.566902,19.868799"
       orientation="0,1"
       id="guide30"
       inkscape:locked="false" />
    <sodipodi:guide
       position="65.987406,16.299677"
       orientation="0,1"
       id="guide32"
       inkscape:locked="false" />
    <sodipodi:guide
       position="81.235492,19.868799"
       orientation="0,1"
       id="guide34"
       inkscape:locked="false" />
    <sodipodi:guide
       position="93.959102,20.319989"
       orientation="0,1"
       id="guide36"
       inkscape:locked="false" />
    <sodipodi:guide
       position="61.122927,4.6102449"
       orientation="0,1"
       id="guide49"
       inkscape:locked="false" />
    <sodipodi:guide
       position="72.875334,13.171191"
       orientation="1,0"
       id="guide57"
       inkscape:locked="false" />
    <sodipodi:guide
       position="76.240429,11.514933"
       orientation="1,0"
       id="guide59"
       inkscape:locked="false" />
    <sodipodi:guide
       position="23.42302,13.849324"
       orientation="1,0"
       id="guide107"
       inkscape:locked="false" />
    <sodipodi:guide
       position="26.824934,17.028163"
       orientation="1,0"
       id="guide109"
       inkscape:locked="false" />
  </sodipodi:namedview>
  <path
     inkscape:connector-curvature="0"
     id="path2"
     d="m 3.386,12.531 q 0,2.1449 2.5964,2.1449 H 9.1433 V 10.3861 H 5.9824 q -2.5964,0 -2.5964,2.1449 z M 9.1433,8.8057 q 0,-1.6256 -0.85796,-2.3932 -0.83538,-0.76764 -2.19,-0.76764 -1.016,0 -1.9868,0.31609 -0.97084,0.29351 -1.7385,0.8128 L 1.57982,5.41905 Q 2.07653,5.08038 2.66352,4.83203 3.27312,4.58367 3.90532,4.42563 4.5375,4.24501 5.14712,4.1547 5.7793,4.06439 6.32112,4.06439 q 1.445,0 2.5513,0.33867 1.1063,0.33867 1.874,0.97084 0.76764,0.63218 1.1515,1.5127 0.4064,0.85796 0.4064,1.9191 v 7.4507 h -6.3218 q -3.0706,0 -4.5381,-0.92569 -1.445,-0.92569 -1.445,-2.7996 0,-1.874 1.445,-2.7996 1.4676,-0.92569 4.5381,-0.92569 z" />
  <path
     inkscape:connector-curvature="0"
     id="path4"
     d="m 26.714,16.256 q 0,0.97084 -0.31609,1.7836 -0.31609,0.83538 -0.92569,1.445 -0.58702,0.6096 -1.4676,0.94827 -0.88053,0.33867 -2.032,0.33867 -0.58702,0 -1.2418,-0.11289 -0.67733,-0.11289 -1.3547,-0.45156 l 0.45156,-1.4676 q 0.33867,0.18062 0.8128,0.31609 0.45156,0.13547 0.88053,0.13547 0.42898,0 0.79022,-0.15804 0.38382,-0.15804 0.65476,-0.51929 0.27093,-0.33867 0.42898,-0.90311 0.15804,-0.54187 0.15804,-1.3547 v -11.515 h 3.1609 z M 26.82689,1.693 q 0,0.67733 -0.47413,1.1966 -0.45156,0.49671 -1.2192,0.49671 -0.76764,0 -1.2418,-0.49671 Q 23.4402,2.37031 23.4402,1.693 q 0,-0.67731 0.45156,-1.174 0.47413,-0.51929 1.2418,-0.51929 0.74507,0 1.2192,0.51929 0.47413,0.49671 0.47413,1.174 z" />
  <path
     inkscape:connector-curvature="0"
     id="path6"
     d="m 40.587,6.999 q 0,0.51929 0.45156,0.94827 0.47413,0.42898 1.5804,0.74507 l 3.4996,1.016 q 1.6256,0.47413 2.5061,1.2869 0.8805,0.81277 0.88053,2.0997 0,0.8128 -0.33867,1.4901 -0.33867,0.65476 -1.1063,1.1289 -0.76764,0.47413 -1.9868,0.72249 -1.2192,0.27093 -3.0028,0.27093 -0.92569,0 -1.8288,-0.13547 -0.88053,-0.13547 -1.6933,-0.36124 -0.79022,-0.24836 -1.445,-0.54187 -0.65476,-0.31609 -1.1289,-0.65476 l 0.90311,-1.3547 q 0.94827,0.58702 2.2126,1.0386 1.2869,0.42898 2.9803,0.42898 1.6933,0 2.3707,-0.45156 0.67733,-0.45156 0.67733,-1.1289 0,-0.51929 -0.47413,-0.92569 -0.47413,-0.42898 -1.6708,-0.76764 l -3.4996,-1.016 q -1.445,-0.42898 -2.3707,-1.2192 -0.90311,-0.8128 -0.90311,-2.1675 0,-0.72249 0.31609,-1.3321 0.33867,-0.63218 1.0386,-1.0837 0.69991,-0.45156 1.7836,-0.69991 1.0837,-0.27093 2.619,-0.27093 1.874,0 3.3867,0.51929 1.5353,0.49671 2.4836,1.174 L 47.9248,7.11176 Q 46.99911,6.52474 45.8251,6.09576 44.6511,5.6442 42.9577,5.6442 q -1.1966,0 -1.7836,0.38382 -0.58702,0.38382 -0.58702,0.97084 z" />
  <path
     inkscape:connector-curvature="0"
     id="path8"
     d="m 51.757,4.515 h 11.74 q 3.2286,0 4.7639,1.174 1.5579,1.1515 1.5579,3.4544 v 7.112 h -3.1609 v -7.112 q 0,-1.6256 -0.8128,-2.3255 Q 65.0323,6.09541 63.497,6.09541 h -1.1289 v 10.16 h -3.1609 v -10.16 h -4.2898 v 10.16 h -3.1609 z" />
  <path
     inkscape:connector-curvature="0"
     id="path10"
     d="M 76.146,16.256 H 72.9851 V 4.741 H 76.146 Z M 76.25888,1.693 q 0,0.67733 -0.47413,1.1966 -0.45155,0.49671 -1.2192,0.49671 -0.76764,0 -1.2418,-0.49671 Q 72.8722,2.37031 72.8722,1.693 q 0,-0.67731 0.45155,-1.174 0.47414,-0.51929 1.2418,-0.51929 0.74507,0 1.2192,0.51929 0.47413,0.49671 0.47413,1.174 z" />
  <path
     inkscape:connector-curvature="0"
     id="path12"
     d="M 80.406,6.096 H 78.2611 V 4.5156 H 80.406 V 0.9032 h 3.1609 v 3.6124 h 3.4996 V 6.096 h -3.4996 v 5.8702 q 0,0.85796 0.18062,1.4676 0.2032,0.58702 0.51929,0.97084 0.33866,0.36124 0.76764,0.54187 0.42898,0.18062 0.90311,0.18062 0.67734,0 1.3095,-0.2032 0.63218,-0.22578 1.0612,-0.47413 l 0.67733,1.4676 q -0.67733,0.33867 -1.5579,0.56444 -0.85796,0.22578 -1.7159,0.22578 -2.5513,0 -3.9285,-1.2644 -1.3772,-1.2644 -1.3772,-3.477 z" />
  <path
     inkscape:connector-curvature="0"
     id="path14"
     d="m 103.216,16.256 h -3.1609 V 9.144 q 0,-1.6256 -0.8128,-2.3255 -0.8128,-0.72249 -2.3481,-0.72249 h -2.9351 v 10.16 h -3.1609 v -15.804 h 3.1609 v 4.064 h 2.9351 q 3.2286,0 4.7639,1.174 1.5579,1.1515 1.5579,3.4544 z" />
  <rect
     id="rect26"
     width="5.8889155"
     height="6.2043934"
     x="55.103424"
     y="-12.142834"
     style="stroke-width:0.26458335;fill:#ffffff" />
  <rect
     style="fill:#ffffff;stroke-width:0.42434919"
     id="rect28"
     width="3.499604"
     height="3.3650956"
     x="77.783142"
     y="-20.509281" />
</svg>
