<?xml version="1.0" encoding="UTF-8" standalone="no"?>
<svg
   width="101.63347mm"
   height="20.31953mm"
   fill="#ebaf36"
   version="1.1"
   viewBox="0 0 101.63347 20.319531"
   id="svg16"
   sodipodi:docname="ajsmith.svg"
   inkscape:version="1.1.2 (0a00cf5339, 2022-02-04)"
   xmlns:inkscape="http://www.inkscape.org/namespaces/inkscape"
   xmlns:sodipodi="http://sodipodi.sourceforge.net/DTD/sodipodi-0.dtd"
   xmlns="http://www.w3.org/2000/svg"
   xmlns:svg="http://www.w3.org/2000/svg">
  <defs
     id="defs20" />
  <sodipodi:namedview
     id="namedview18"
     pagecolor="#505050"
     bordercolor="#eeeeee"
     borderopacity="1"
     inkscape:pageshadow="0"
     inkscape:pageopacity="0"
     inkscape:pagecheckerboard="0"
     inkscape:document-units="mm"
     showgrid="false"
     inkscape:zoom="0.88506343"
     inkscape:cx="-168.34952"
     inkscape:cy="-162.13527"
     inkscape:window-width="1920"
     inkscape:window-height="1080"
     inkscape:window-x="0"
     inkscape:window-y="0"
     inkscape:window-maximized="1"
     inkscape:current-layer="svg16"
     fit-margin-top="0"
     fit-margin-left="0"
     fit-margin-right="0"
     fit-margin-bottom="0" />
  <path
     d="m 3.38658,12.07899 q 0,2.1449 2.5964,2.1449 h 3.1609 v -4.2898 h -3.1609 q -2.5964,0 -2.5964,2.1449 z m 5.7573,-3.7253 q 0,-1.6256 -0.85796,-2.3932 -0.83538,-0.76764 -2.19,-0.76764 -1.016,0 -1.9868,0.31609 -0.97084,0.29351 -1.7385,0.8128 L 1.5804,4.96704 Q 2.07711,4.62837 2.6641,4.38002 3.2737,4.13166 3.9059,3.97362 4.53808,3.793 5.1477,3.70269 5.77988,3.61238 6.3217,3.61238 q 1.445,0 2.5513,0.33867 1.1063,0.33867 1.874,0.97084 0.76764,0.63218 1.1515,1.5127 0.4064,0.85796 0.4064,1.9191 v 7.4507 H 5.9831 q -3.0706,0 -4.5381,-0.92569 Q 0,13.95301 0,12.0791 0,10.2051 1.445,9.2795 2.9126,8.35381 5.9831,8.35381 Z"
     id="path2" />
  <path
     d="m 26.71498,15.80399 q 0,0.97084 -0.31609,1.7836 -0.31609,0.83538 -0.92569,1.445 -0.58702,0.6096 -1.4676,0.94827 -0.88053,0.33867 -2.032,0.33867 -0.58702,0 -1.2418,-0.11289 -0.67733,-0.11289 -1.3547,-0.45156 l 0.45156,-1.4676 q 0.33867,0.18062 0.8128,0.31609 0.45156,0.13547 0.88053,0.13547 0.42898,0 0.79022,-0.15804 0.38382,-0.15804 0.65476,-0.51929 0.27093,-0.33867 0.42898,-0.90311 0.15804,-0.54187 0.15804,-1.3547 V 4.2889 h 3.1609 z"
     id="path4" />
  <path
     d="m 40.58798,6.54699 q 0,0.51929 0.45156,0.94827 0.47413,0.42898 1.5804,0.74507 l 3.4996,1.016 q 1.6256,0.47413 2.5061,1.2869 0.8805,0.81277 0.88053,2.0997 0,0.8128 -0.33867,1.4901 -0.33867,0.65476 -1.1063,1.1289 -0.76764,0.47413 -1.9868,0.72249 -1.2192,0.27093 -3.0028,0.27093 -0.92569,0 -1.8288,-0.13547 -0.88053,-0.13547 -1.6933,-0.36124 -0.79022,-0.24836 -1.445,-0.54187 -0.65476,-0.31609 -1.1289,-0.65476 l 0.90311,-1.3547 q 0.94827,0.58702 2.2126,1.0386 1.2869,0.42898 2.9803,0.42898 1.6933,0 2.3707,-0.45156 0.67733,-0.45156 0.67733,-1.1289 0,-0.51929 -0.47413,-0.92569 -0.47413,-0.42898 -1.6708,-0.76764 l -3.4996,-1.016 Q 39.03011,9.95612 38.10441,9.1659 37.2013,8.3531 37.2013,6.9984 q 0,-0.72249 0.31609,-1.3321 0.33867,-0.63218 1.0386,-1.0837 0.69991,-0.45156 1.7836,-0.69991 1.0837,-0.27093 2.619,-0.27093 1.874,0 3.3867,0.51929 1.5353,0.49671 2.4836,1.174 l -0.90311,1.3547 q -0.92569,-0.58702 -2.0997,-1.016 -1.174,-0.45156 -2.8674,-0.45156 -1.1966,0 -1.7836,0.38382 -0.58702,0.38382 -0.58702,0.97084 z"
     id="path6" />
  <path
     d="m 51.228813,4.06299 h 11.74 q 3.2286,0 4.7639,1.174 1.5579,1.1515 1.5579,3.4544 v 7.112 h -3.1609 v -7.112 q 0,-1.6256 -0.8128,-2.3255 -0.8128,-0.72249 -2.3481,-0.72249 h -1.1289 v 10.16 h -3.1609 v -10.16 h -4.2898 v 10.16 h -3.1609 z"
     id="path8" />
  <path
     d="m 74.559479,15.80399 h -3.1609 v -11.515 h 3.1609 z"
     id="path10" />
  <path
     d="m 78.819479,5.64399 h -2.1449 v -1.5804 h 2.1449 v -3.6124 h 3.1609 v 3.6124 h 3.4996 v 1.5804 h -3.4996 v 5.8702 q 0,0.85796 0.18062,1.4676 0.2032,0.58702 0.51929,0.97084 0.33866,0.36124 0.76764,0.54187 0.42898,0.18062 0.90311,0.18062 0.67734,0 1.3095,-0.2032 0.63218,-0.22578 1.0612,-0.47413 l 0.67733,1.4676 q -0.67733,0.33867 -1.5579,0.56444 -0.85796,0.22578 -1.7159,0.22578 -2.5513,0 -3.9285,-1.2644 -1.3772,-1.2644 -1.3772,-3.477 z"
     id="path12" />
  <path
     d="m 101.63347,15.80399 h -3.160891 v -7.112 q 0,-1.6256 -0.8128,-2.3255 -0.8128,-0.72249 -2.3481,-0.72249 h -2.9351 v 10.16 h -3.1609 V 0 h 3.1609 v 4.064 h 2.9351 q 3.2286,0 4.763891,1.174 1.5579,1.1515 1.5579,3.4544 z"
     id="path14" />
</svg>
