<?xml version="1.0" encoding="UTF-8" standalone="no"?>
<svg
   width="103.21mm"
   height="20.772mm"
   fill="#ebaf36"
   version="1.1"
   viewBox="0 0 103.21 20.772"
   id="svg16"
   sodipodi:docname="ajsmith2.svg"
   inkscape:version="1.1.2 (0a00cf5339, 2022-02-04)"
   xmlns:inkscape="http://www.inkscape.org/namespaces/inkscape"
   xmlns:sodipodi="http://sodipodi.sourceforge.net/DTD/sodipodi-0.dtd"
   xmlns="http://www.w3.org/2000/svg"
   xmlns:svg="http://www.w3.org/2000/svg">
  <defs
     id="defs20" />
  <sodipodi:namedview
     id="namedview18"
     pagecolor="#505050"
     bordercolor="#eeeeee"
     borderopacity="1"
     inkscape:pageshadow="0"
     inkscape:pageopacity="0"
     inkscape:pagecheckerboard="0"
     inkscape:document-units="mm"
     showgrid="false"
     inkscape:zoom="3.5402537"
     inkscape:cx="213.96772"
     inkscape:cy="96.179547"
     inkscape:window-width="1920"
     inkscape:window-height="1080"
     inkscape:window-x="0"
     inkscape:window-y="0"
     inkscape:window-maximized="1"
     inkscape:current-layer="svg16" />
  <path
     d="m3.3856 12.531q0 2.1449 2.5964 2.1449h3.1609v-4.2898h-3.1609q-2.5964 0-2.5964 2.1449zm5.7573-3.7253q0-1.6256-0.85796-2.3932-0.83538-0.76764-2.19-0.76764-1.016 0-1.9868 0.31609-0.97084 0.29351-1.7385 0.8128l-0.79022-1.3547q0.49671-0.33867 1.0837-0.58702 0.6096-0.24836 1.2418-0.4064 0.63218-0.18062 1.2418-0.27093 0.63218-0.09031 1.174-0.09031 1.445 0 2.5513 0.33867t1.874 0.97084q0.76764 0.63218 1.1515 1.5127 0.4064 0.85796 0.4064 1.9191v7.4507h-6.3218q-3.0706 0-4.5381-0.92569-1.445-0.92569-1.445-2.7996 0-1.874 1.445-2.7996 1.4676-0.92569 4.5381-0.92569z"
     id="path2" />
  <path
     d="m26.714 16.256q0 0.97084-0.31609 1.7836-0.31609 0.83538-0.92569 1.445-0.58702 0.6096-1.4676 0.94827-0.88053 0.33867-2.032 0.33867-0.58702 0-1.2418-0.11289-0.67733-0.11289-1.3547-0.45156l0.45156-1.4676q0.33867 0.18062 0.8128 0.31609 0.45156 0.13547 0.88053 0.13547 0.42898 0 0.79022-0.15804 0.38382-0.15804 0.65476-0.51929 0.27093-0.33867 0.42898-0.90311 0.15804-0.54187 0.15804-1.3547v-11.515h3.1609z"
     id="path4" />
  <path
     d="m40.587 6.999q0 0.51929 0.45156 0.94827 0.47413 0.42898 1.5804 0.74507l3.4996 1.016q1.6256 0.47413 2.5061 1.2869t0.88053 2.0997q0 0.8128-0.33867 1.4901-0.33867 0.65476-1.1063 1.1289-0.76764 0.47413-1.9868 0.72249-1.2192 0.27093-3.0028 0.27093-0.92569 0-1.8288-0.13547-0.88053-0.13547-1.6933-0.36124-0.79022-0.24836-1.445-0.54187-0.65476-0.31609-1.1289-0.65476l0.90311-1.3547q0.94827 0.58702 2.2126 1.0386 1.2869 0.42898 2.9803 0.42898 1.6933 0 2.3707-0.45156 0.67733-0.45156 0.67733-1.1289 0-0.51929-0.47413-0.92569-0.47413-0.42898-1.6708-0.76764l-3.4996-1.016q-1.445-0.42898-2.3707-1.2192-0.90311-0.8128-0.90311-2.1675 0-0.72249 0.31609-1.3321 0.33867-0.63218 1.0386-1.0837 0.69991-0.45156 1.7836-0.69991 1.0837-0.27093 2.619-0.27093 1.874 0 3.3867 0.51929 1.5353 0.49671 2.4836 1.174l-0.90311 1.3547q-0.92569-0.58702-2.0997-1.016-1.174-0.45156-2.8674-0.45156-1.1966 0-1.7836 0.38382-0.58702 0.38382-0.58702 0.97084z"
     id="path6" />
  <path
     d="m 51.227833,4.515 h 11.74 q 3.2286,0 4.7639,1.174 1.5579,1.1515 1.5579,3.4544 v 7.112 h -3.1609 v -7.112 q 0,-1.6256 -0.8128,-2.3255 -0.8128,-0.72249 -2.3481,-0.72249 h -1.1289 v 10.16 h -3.1609 v -10.16 h -4.2898 v 10.16 h -3.1609 z"
     id="path8" />
  <path
     d="m 74.558499,16.256 h -3.1609 V 4.741 h 3.1609 z"
     id="path10" />
  <path
     d="m 78.818499,6.096 h -2.1449 V 4.5156 h 2.1449 V 0.9032 h 3.1609 v 3.6124 h 3.4996 V 6.096 h -3.4996 v 5.8702 q 0,0.85796 0.18062,1.4676 0.2032,0.58702 0.51929,0.97084 0.33866,0.36124 0.76764,0.54187 0.42898,0.18062 0.90311,0.18062 0.67734,0 1.3095,-0.2032 0.63218,-0.22578 1.0612,-0.47413 l 0.67733,1.4676 q -0.67733,0.33867 -1.5579,0.56444 -0.85796,0.22578 -1.7159,0.22578 -2.5513,0 -3.9285,-1.2644 -1.3772,-1.2644 -1.3772,-3.477 z"
     id="path12" />
  <path
     d="M 101.63249,16.256 H 98.471599 V 9.144 q 0,-1.6256 -0.8128,-2.3255 -0.8128,-0.72249 -2.3481,-0.72249 h -2.9351 v 10.16 h -3.1609 v -15.804 h 3.1609 v 4.064 h 2.9351 q 3.2286,0 4.763891,1.174 1.5579,1.1515 1.5579,3.4544 z"
     id="path14" />
</svg>
