<?xml version="1.0" encoding="UTF-8" standalone="no"?>
<!-- Created with Inkscape (http://www.inkscape.org/) -->

<svg
   width="210mm"
   height="297mm"
   viewBox="0 0 210 297"
   version="1.1"
   id="svg1103"
   inkscape:version="1.1.2 (0a00cf5339, 2022-02-04)"
   sodipodi:docname="other-logo-ideas.svg"
   xmlns:inkscape="http://www.inkscape.org/namespaces/inkscape"
   xmlns:sodipodi="http://sodipodi.sourceforge.net/DTD/sodipodi-0.dtd"
   xmlns="http://www.w3.org/2000/svg"
   xmlns:svg="http://www.w3.org/2000/svg">
  <sodipodi:namedview
     id="namedview1105"
     pagecolor="#505050"
     bordercolor="#eeeeee"
     borderopacity="1"
     inkscape:pageshadow="0"
     inkscape:pageopacity="0"
     inkscape:pagecheckerboard="0"
     inkscape:document-units="mm"
     showgrid="false"
     showguides="false"
     inkscape:guide-bbox="true"
     inkscape:zoom="1.0973349"
     inkscape:cx="343.55966"
     inkscape:cy="484.35533"
     inkscape:window-width="958"
     inkscape:window-height="1042"
     inkscape:window-x="960"
     inkscape:window-y="38"
     inkscape:window-maximized="1"
     inkscape:current-layer="layer1">
    <sodipodi:guide
       position="84.755593,170.39737"
       orientation="0,-1"
       id="guide1644" />
    <sodipodi:guide
       position="92.921262,158.64117"
       orientation="0,-1"
       id="guide1646" />
    <sodipodi:guide
       position="89.076496,157.29286"
       orientation="0,-1"
       id="guide28228" />
    <sodipodi:guide
       position="89.305127,153.90175"
       orientation="0,-1"
       id="guide34690" />
    <sodipodi:guide
       position="93.182128,163.91119"
       orientation="1,0"
       id="guide34692" />
    <sodipodi:guide
       position="91.038298,171.07443"
       orientation="1,0"
       id="guide34694" />
    <sodipodi:guide
       position="96.346359,170.40832"
       orientation="1,0"
       id="guide34696" />
    <sodipodi:guide
       position="99.851533,167.7325"
       orientation="1,0"
       id="guide45508" />
  </sodipodi:namedview>
  <defs
     id="defs1100" />
  <g
     inkscape:label="Layer 1"
     inkscape:groupmode="layer"
     id="layer1">
    <path
       inkscape:connector-curvature="0"
       id="path2"
       d="m 15.883916,98.303814 q 0,2.144896 2.5964,2.144896 h 3.1609 v -4.289796 h -3.1609 q -2.5964,0 -2.5964,2.1449 z m 5.7573,-3.7253 q 0,-1.6256 -0.85796,-2.3932 -0.83538,-0.76764 -2.19,-0.76764 -1.016,0 -1.9868,0.31609 -0.97084,0.29351 -1.7385,0.8128 l -0.79022,-1.3547 q 0.49671,-0.33867 1.0837,-0.58702 0.6096,-0.24836 1.2418,-0.4064 0.63218,-0.18062 1.2418,-0.27093 0.63218,-0.09031 1.174,-0.09031 1.445,0 2.5513,0.33867 1.1063,0.33867 1.874,0.97084 0.76764,0.63218 1.1515,1.5127 0.4064,0.85796 0.4064,1.9191 v 7.450696 h -6.3218 q -3.0706,0 -4.5381,-0.92569 -1.445,-0.92569 -1.445,-2.799596 0,-1.874 1.445,-2.7996 1.4676,-0.92569 4.5381,-0.92569 z" />
    <path
       d="m 39.211916,102.02881 q 0,0.97084 -0.31609,1.7836 -0.31609,0.83538 -0.92569,1.445 -0.58702,0.6096 -1.4676,0.94827 -0.88053,0.33867 -2.032,0.33867 -0.58702,0 -1.2418,-0.11289 -0.67733,-0.11289 -1.3547,-0.45156 l 0.45156,-1.4676 q 0.33867,0.18062 0.8128,0.31609 0.45156,0.13547 0.88053,0.13547 0.42898,0 0.79022,-0.15804 0.38382,-0.15804 0.65476,-0.51929 0.27093,-0.33867 0.42898,-0.90311 0.15804,-0.54187 0.15804,-1.3547 V 90.513724 h 3.1609 z"
       id="path4" />
    <path
       inkscape:connector-curvature="0"
       id="path6"
       d="m 53.084916,92.771814 q 0,0.51929 0.45156,0.94827 0.47413,0.42898 1.5804,0.74507 l 3.4996,1.016 q 1.6256,0.47413 2.5061,1.2869 0.8805,0.81277 0.88053,2.0997 0,0.8128 -0.33867,1.490096 -0.33867,0.65476 -1.1063,1.1289 -0.76764,0.47413 -1.9868,0.72249 -1.2192,0.27093 -3.0028,0.27093 -0.92569,0 -1.8288,-0.13547 -0.88053,-0.13547 -1.6933,-0.36124 -0.79022,-0.24836 -1.445,-0.54187 -0.65476,-0.31609 -1.1289,-0.65476 l 0.90311,-1.354696 q 0.94827,0.587016 2.2126,1.038596 1.2869,0.42898 2.9803,0.42898 1.6933,0 2.3707,-0.45156 0.67733,-0.451556 0.67733,-1.128896 0,-0.51929 -0.47413,-0.92569 -0.47413,-0.42898 -1.6708,-0.76764 l -3.4996,-1.016 q -1.445,-0.42898 -2.3707,-1.2192 -0.90311,-0.8128 -0.90311,-2.1675 0,-0.72249 0.31609,-1.3321 0.33867,-0.63218 1.0386,-1.0837 0.69991,-0.45156 1.7836,-0.69991 1.0837,-0.27093 2.619,-0.27093 1.874,0 3.3867,0.51929 1.5353,0.49671 2.4836,1.174 l -0.90311,1.3547 q -0.92569,-0.58702 -2.0997,-1.016 -1.174,-0.45156 -2.8674,-0.45156 -1.1966,0 -1.7836,0.38382 -0.58702,0.38382 -0.58702,0.97084 z" />
    <path
       inkscape:connector-curvature="0"
       id="path8"
       d="m 64.254916,90.287814 h 11.74 q 3.2286,0 4.7639,1.174 1.5579,1.1515 1.5579,3.4544 v 7.111996 h -3.1609 v -7.111996 q 0,-1.6256 -0.8128,-2.3255 -0.8128,-0.72249 -2.3481,-0.72249 h -1.1289 v 10.159996 h -3.1609 V 91.868224 h -4.2898 v 10.159996 h -3.1609 z" />
    <path
       d="m 88.643916,102.02881 h -3.1609 V 90.513814 h 3.1609 z"
       id="path10" />
    <path
       inkscape:connector-curvature="0"
       id="path12"
       d="m 92.903916,91.868814 h -2.1449 v -1.5804 h 2.1449 v -3.6124 h 3.1609 v 3.6124 h 3.4996 v 1.5804 h -3.4996 v 5.8702 q 0,0.85796 0.18062,1.4676 0.2032,0.58702 0.51929,0.970836 0.33866,0.36124 0.76764,0.54187 0.42898,0.18062 0.90311,0.18062 0.67734,0 1.3095,-0.2032 0.632184,-0.22578 1.061204,-0.47413 l 0.67733,1.4676 q -0.67733,0.33867 -1.557904,0.56444 -0.85796,0.22578 -1.7159,0.22578 -2.5513,0 -3.9285,-1.2644 -1.3772,-1.264396 -1.3772,-3.476996 z" />
    <path
       inkscape:connector-curvature="0"
       id="path14"
       d="m 115.71392,102.02881 h -3.1609 v -7.111996 q 0,-1.6256 -0.8128,-2.3255 -0.8128,-0.72249 -2.3481,-0.72249 h -2.9351 v 10.159996 h -3.1609 V 86.224824 h 3.1609 v 4.064 h 2.9351 q 3.2286,0 4.7639,1.174 1.5579,1.1515 1.5579,3.4544 z" />
    <path
       inkscape:connector-curvature="0"
       id="path2-3"
       d="m 15.944113,73.991847 q 0,2.1449 2.5964,2.1449 h 3.1609 v -4.2898 h -3.1609 q -2.5964,0 -2.5964,2.1449 z m 5.7573,-3.7253 q 0,-1.6256 -0.85796,-2.3932 -0.83538,-0.76764 -2.19,-0.76764 -1.016,0 -1.9868,0.31609 -0.97084,0.29351 -1.7385,0.8128 l -0.79022,-1.3547 q 0.49671,-0.33867 1.0837,-0.58702 0.6096,-0.24836 1.2418,-0.4064 0.63218,-0.18062 1.2418,-0.27093 0.63218,-0.0903 1.174,-0.0903 1.445,0 2.5513,0.33867 1.1063,0.33867 1.874,0.97084 0.76764,0.63218 1.1515,1.5127 0.4064,0.85796 0.4064,1.9191 v 7.4507 h -6.3218 q -3.0706,0 -4.5381,-0.92569 -1.445,-0.92569 -1.445,-2.7996 0,-1.874 1.445,-2.7996 1.4676,-0.92569 4.5381,-0.92569 z" />
    <path
       inkscape:connector-curvature="0"
       id="path4-6"
       d="m 39.272117,77.716847 q 0,0.97084 -0.31609,1.7836 -0.31609,0.83538 -0.92569,1.445 -0.58702,0.6096 -1.4676,0.94827 -0.88053,0.33867 -2.032,0.33867 -0.587024,0 -1.241804,-0.11289 -0.67733,-0.11289 -1.3547,-0.45156 l 0.45156,-1.4676 q 0.33867,0.18062 0.8128,0.31609 0.45156,0.13547 0.88053,0.13547 0.428984,0 0.790224,-0.15804 0.38382,-0.15804 0.65476,-0.51929 0.27093,-0.33867 0.42898,-0.90311 0.15804,-0.54187 0.15804,-1.3547 v -11.515 h 3.1609 z m 0.11289,-14.563 q 0,0.67733 -0.47413,1.1966 -0.45156,0.49671 -1.2192,0.49671 -0.76764,0 -1.2418,-0.49671 -0.45156,-0.51929 -0.45156,-1.1966 0,-0.67731 0.45156,-1.174 0.47413,-0.51929 1.2418,-0.51929 0.74507,0 1.2192,0.51929 0.47413,0.49671 0.47413,1.174 z" />
    <path
       inkscape:connector-curvature="0"
       id="path6-7"
       d="m 53.145117,68.459847 q 0,0.51929 0.45156,0.94827 0.47413,0.42898 1.5804,0.74507 l 3.4996,1.016 q 1.6256,0.47413 2.5061,1.2869 0.8805,0.81277 0.88053,2.0997 0,0.8128 -0.33867,1.4901 -0.33867,0.65476 -1.1063,1.1289 -0.76764,0.47413 -1.9868,0.72249 -1.2192,0.27093 -3.0028,0.27093 -0.92569,0 -1.8288,-0.13547 -0.88053,-0.13547 -1.6933,-0.36124 -0.79022,-0.24836 -1.445,-0.54187 -0.65476,-0.31609 -1.1289,-0.65476 l 0.90311,-1.3547 q 0.94827,0.58702 2.2126,1.0386 1.2869,0.42898 2.9803,0.42898 1.6933,0 2.3707,-0.45156 0.67733,-0.45156 0.67733,-1.1289 0,-0.51929 -0.47413,-0.92569 -0.47413,-0.42898 -1.6708,-0.76764 l -3.4996,-1.016 q -1.445,-0.42898 -2.3707,-1.2192 -0.90311,-0.8128 -0.90311,-2.1675 0,-0.72249 0.31609,-1.3321 0.33867,-0.63218 1.0386,-1.0837 0.69991,-0.45156 1.7836,-0.69991 1.0837,-0.27093 2.619,-0.27093 1.874,0 3.3867,0.51929 1.5353,0.49671 2.4836,1.174 l -0.90311,1.3547 q -0.92569,-0.58702 -2.0997,-1.016 -1.174,-0.45156 -2.8674,-0.45156 -1.1966,0 -1.7836,0.38382 -0.58702,0.38382 -0.58702,0.97084 z" />
    <path
       inkscape:connector-curvature="0"
       id="path8-5"
       d="m 64.315117,65.975847 h 11.74 q 3.2286,0 4.7639,1.174 1.5579,1.1515 1.5579,3.4544 v 7.112 h -3.1609 v -7.112 q 0,-1.6256 -0.8128,-2.3255 -0.8128,-0.72249 -2.3481,-0.72249 h -1.1289 v 10.16 h -3.1609 v -10.16 h -4.2898 v 10.16 h -3.1609 z" />
    <path
       inkscape:connector-curvature="0"
       id="path10-3"
       d="m 88.704117,77.716847 h -3.1609 v -11.515 h 3.1609 z m 0.11288,-14.563 q 0,0.67733 -0.47413,1.1966 -0.45155,0.49671 -1.2192,0.49671 -0.76764,0 -1.2418,-0.49671 -0.45155,-0.51929 -0.45155,-1.1966 0,-0.67731 0.45155,-1.174 0.47414,-0.51929 1.2418,-0.51929 0.74507,0 1.2192,0.51929 0.47413,0.49671 0.47413,1.174 z" />
    <path
       inkscape:connector-curvature="0"
       id="path12-5"
       d="m 92.964117,67.556847 h -2.1449 v -1.5804 h 2.1449 v -3.6124 h 3.1609 v 3.6124 h 3.4996 v 1.5804 h -3.4996 v 5.8702 q 0,0.85796 0.18062,1.4676 0.2032,0.58702 0.51929,0.97084 0.33866,0.36124 0.76764,0.54187 0.42898,0.18062 0.90311,0.18062 0.67734,0 1.3095,-0.2032 0.632183,-0.22578 1.061203,-0.47413 l 0.67733,1.4676 q -0.67733,0.33867 -1.557903,0.56444 -0.85796,0.22578 -1.7159,0.22578 -2.5513,0 -3.9285,-1.2644 -1.3772,-1.2644 -1.3772,-3.477 z" />
    <path
       inkscape:connector-curvature="0"
       id="path14-6"
       d="m 115.77412,77.716847 h -3.1609 v -7.112 q 0,-1.6256 -0.8128,-2.3255 -0.8128,-0.72249 -2.3481,-0.72249 h -2.9351 v 10.16 h -3.1609 v -15.804 h 3.1609 v 4.064 h 2.9351 q 3.2286,0 4.7639,1.174 1.5579,1.1515 1.5579,3.4544 z" />
    <path
       inkscape:connector-curvature="0"
       id="path2-3-2"
       d="m 16.165476,134.60712 q 0,2.14491 2.5964,2.14491 h 3.1609 v -4.28982 h -3.1609 q -2.5964,0 -2.5964,2.14491 z m 5.7573,-3.72532 q 0,-1.62561 -0.85796,-2.39321 -0.83538,-0.76765 -2.19,-0.76765 -1.016,0 -1.9868,0.31609 -0.97084,0.29352 -1.7385,0.81281 l -0.79022,-1.35471 q 0.49671,-0.33867 1.0837,-0.58702 0.6096,-0.24836 1.2418,-0.4064 0.63218,-0.18063 1.2418,-0.27094 0.63218,-0.0903 1.174,-0.0903 1.445,0 2.5513,0.33868 1.1063,0.33867 1.874,0.97084 0.76764,0.63219 1.1515,1.51271 0.4064,0.85797 0.4064,1.91911 v 7.45074 h -6.3218 q -3.0706,0 -4.5381,-0.92569 -1.445,-0.9257 -1.445,-2.79962 0,-1.87401 1.445,-2.79961 1.4676,-0.9257 4.5381,-0.9257 z" />
    <path
       d="m 39.49348,138.33214 q 0,0.97085 -0.31609,1.78361 -0.31609,0.83539 -0.92569,1.44501 -0.58702,0.6096 -1.4676,0.94828 -0.88053,0.33867 -2.032,0.33867 -0.587024,0 -1.241804,-0.11289 -0.67733,-0.11289 -1.3547,-0.45157 l 0.45156,-1.4676 q 0.33867,0.18062 0.8128,0.31609 0.45156,0.13547 0.88053,0.13547 0.428984,0 0.790224,-0.15804 0.38382,-0.15804 0.65476,-0.51929 0.27093,-0.33867 0.42898,-0.90312 0.15804,-0.54187 0.15804,-1.35471 v -11.51506 h 3.1609 z"
       id="path4-6-9" />
    <path
       inkscape:connector-curvature="0"
       id="path6-7-1"
       d="m 53.36648,129.07509 q 0,0.51929 0.45156,0.94828 0.47413,0.42898 1.5804,0.74507 l 3.4996,1.01601 q 1.6256,0.47413 2.5061,1.2869 0.8805,0.81278 0.88053,2.09972 0,0.8128 -0.33867,1.4901 -0.33867,0.65477 -1.1063,1.12891 -0.76764,0.47413 -1.9868,0.72249 -1.2192,0.27094 -3.0028,0.27094 -0.92569,0 -1.8288,-0.13547 -0.88053,-0.13548 -1.6933,-0.36125 -0.79022,-0.24836 -1.445,-0.54187 -0.65476,-0.31609 -1.1289,-0.65476 l 0.90311,-1.35471 q 0.94827,0.58702 2.2126,1.0386 1.2869,0.42899 2.9803,0.42899 1.6933,0 2.3707,-0.45157 0.67733,-0.45156 0.67733,-1.1289 0,-0.51929 -0.47413,-0.9257 -0.47413,-0.42898 -1.6708,-0.76764 l -3.4996,-1.01601 q -1.445,-0.42898 -2.3707,-1.21921 -0.90311,-0.8128 -0.90311,-2.16751 0,-0.72249 0.31609,-1.3321 0.33867,-0.63219 1.0386,-1.08371 0.69991,-0.45156 1.7836,-0.69992 1.0837,-0.27093 2.619,-0.27093 1.874,0 3.3867,0.5193 1.5353,0.49671 2.4836,1.174 l -0.90311,1.35471 q -0.92569,-0.58702 -2.0997,-1.016 -1.174,-0.45157 -2.8674,-0.45157 -1.1966,0 -1.7836,0.38383 -0.58702,0.38382 -0.58702,0.97084 z" />
    <path
       inkscape:connector-curvature="0"
       id="path8-5-2"
       d="m 64.53648,126.59108 h 11.74 q 3.2286,0 4.7639,1.174 1.5579,1.15151 1.5579,3.45442 v 7.11204 h -3.1609 v -7.11204 q 0,-1.62561 -0.8128,-2.32551 -0.8128,-0.72249 -2.3481,-0.72249 h -1.1289 v 10.16005 h -3.1609 V 128.1715 h -4.2898 v 10.16005 h -3.1609 z" />
    <path
       d="m 89.03836,141.40137 q 0,-0.67734 -0.47413,-1.19661 -0.45155,-0.49671 -1.2192,-0.49671 -0.76764,0 -1.2418,0.49671 -0.45155,0.51929 -0.45155,1.19661 0,0.67731 0.45155,1.17401 0.47414,0.51929 1.2418,0.51929 0.74507,0 1.2192,-0.51929 0.47413,-0.49672 0.47413,-1.17401 z"
       id="path1650" />
    <path
       d="m 88.92548,126.60308 h -3.1609 v 11.75027 h 3.1609 z"
       id="path10-3-7"
       style="stroke-width:1.01016" />
    <path
       inkscape:connector-curvature="0"
       id="path12-5-0"
       d="M 93.185479,128.17209 H 91.04058 v -1.58041 h 2.144899 v -3.61242 h 3.160882 v 3.61242 h 3.499582 v 1.58041 h -3.499582 v 5.87023 q 0,0.85796 0.18062,1.46761 0.2032,0.58702 0.519287,0.97084 0.338657,0.36124 0.767637,0.54187 0.428977,0.18063 0.903104,0.18063 0.677337,0 1.309491,-0.20321 0.63218,-0.22578 1.0612,-0.47413 l 0.67733,1.46761 q -0.67733,0.33867 -1.5579,0.56444 -0.857954,0.22579 -1.715891,0.22579 -2.551285,0 -3.928476,-1.26441 -1.377194,-1.26441 -1.377194,-3.47702 z" />
    <path
       inkscape:connector-curvature="0"
       id="path14-6-9"
       d="m 115.99544,138.33214 h -3.1609 v -7.11204 q 0,-1.62561 -0.8128,-2.32551 -0.8128,-0.72249 -2.3481,-0.72249 h -2.9351 v 10.16005 h -3.1609 v -15.80409 h 3.1609 v 4.06403 h 2.9351 q 3.2286,0 4.7639,1.174 1.5579,1.15151 1.5579,3.45442 z" />
    <text
       xml:space="preserve"
       style="font-size:10.5833px;line-height:1.25;font-family:sans-serif;stroke-width:0.264583"
       x="90.791931"
       y="142.97997"
       id="text18986"><tspan
         sodipodi:role="line"
         id="tspan18984"
         style="font-style:normal;font-variant:normal;font-weight:normal;font-stretch:normal;font-size:5.99722px;font-family:Prosto;-inkscape-font-specification:'Prosto, Normal';font-variant-ligatures:normal;font-variant-caps:normal;font-variant-numeric:normal;font-variant-east-asian:normal;stroke-width:0.264583"
         x="90.791931"
         y="142.97997">co</tspan></text>
    <path
       inkscape:connector-curvature="0"
       id="path2-3-2-3"
       d="m 14.356905,172.74137 q 0,2.14491 2.5964,2.14491 h 3.1609 v -4.28982 h -3.1609 q -2.5964,0 -2.5964,2.14491 z m 5.7573,-3.72532 q 0,-1.62561 -0.85796,-2.39321 -0.83538,-0.76765 -2.19,-0.76765 -1.016,0 -1.9868,0.31609 -0.97084,0.29352 -1.7385,0.81281 l -0.79022,-1.35471 q 0.49671,-0.33867 1.0837,-0.58702 0.6096,-0.24836 1.2418,-0.4064 0.63218,-0.18063 1.2418,-0.27094 0.63218,-0.0903 1.174,-0.0903 1.445,0 2.5513,0.33868 1.1063,0.33867 1.874,0.97084 0.76764,0.63219 1.1515,1.51271 0.4064,0.85797 0.4064,1.91911 v 7.45074 h -6.3218 q -3.0706,0 -4.5381,-0.92569 -1.445,-0.9257 -1.445,-2.79962 0,-1.87401 1.445,-2.79961 1.4676,-0.9257 4.5381,-0.9257 z" />
    <path
       d="m 37.684909,176.46639 q 0,0.97085 -0.31609,1.78361 -0.31609,0.83539 -0.92569,1.44501 -0.58702,0.6096 -1.4676,0.94828 -0.88053,0.33867 -2.032,0.33867 -0.587024,0 -1.241804,-0.11289 -0.67733,-0.11289 -1.3547,-0.45157 l 0.45156,-1.4676 q 0.33867,0.18062 0.8128,0.31609 0.45156,0.13547 0.88053,0.13547 0.428984,0 0.790224,-0.15804 0.38382,-0.15804 0.65476,-0.51929 0.27093,-0.33867 0.42898,-0.90312 0.15804,-0.54187 0.15804,-1.35471 v -11.51506 h 3.1609 z"
       id="path4-6-9-6" />
    <path
       inkscape:connector-curvature="0"
       id="path6-7-1-0"
       d="m 51.557909,167.20934 q 0,0.51929 0.45156,0.94828 0.47413,0.42898 1.5804,0.74507 l 3.4996,1.01601 q 1.6256,0.47413 2.5061,1.2869 0.8805,0.81278 0.88053,2.09972 0,0.8128 -0.33867,1.4901 -0.33867,0.65477 -1.1063,1.12891 -0.76764,0.47413 -1.9868,0.72249 -1.2192,0.27094 -3.0028,0.27094 -0.92569,0 -1.8288,-0.13547 -0.88053,-0.13548 -1.6933,-0.36125 -0.79022,-0.24836 -1.445,-0.54187 -0.65476,-0.31609 -1.1289,-0.65476 l 0.90311,-1.35471 q 0.94827,0.58702 2.2126,1.0386 1.2869,0.42899 2.9803,0.42899 1.6933,0 2.3707,-0.45157 0.67733,-0.45156 0.67733,-1.1289 0,-0.51929 -0.47413,-0.9257 -0.47413,-0.42898 -1.6708,-0.76764 l -3.4996,-1.01601 q -1.445,-0.42898 -2.3707,-1.21921 -0.90311,-0.8128 -0.90311,-2.16751 0,-0.72249 0.31609,-1.3321 0.33867,-0.63219 1.0386,-1.08371 0.69991,-0.45156 1.7836,-0.69992 1.0837,-0.27093 2.619,-0.27093 1.874,0 3.3867,0.5193 1.5353,0.49671 2.4836,1.174 l -0.90311,1.35471 q -0.92569,-0.58702 -2.0997,-1.016 -1.174,-0.45157 -2.8674,-0.45157 -1.1966,0 -1.7836,0.38383 -0.58702,0.38382 -0.58702,0.97084 z" />
    <path
       inkscape:connector-curvature="0"
       id="path8-5-2-4"
       d="M 62.727909,164.72533 H 74.46791 q 3.2286,0 4.7639,1.174 1.5579,1.15151 1.5579,3.45442 v 7.11204 h -3.1609 v -7.11204 q 0,-1.62561 -0.8128,-2.32551 -0.8128,-0.72249 -2.3481,-0.72249 h -1.1289 v 10.16005 h -3.160901 v -10.16005 h -4.2898 v 10.16005 h -3.1609 z" />
    <path
       d="m 87.22979,179.53562 q 0,-0.67734 -0.47413,-1.19661 -0.45155,-0.49671 -1.2192,-0.49671 -0.76764,0 -1.2418,0.49671 -0.45155,0.51929 -0.45155,1.19661 0,0.67731 0.45155,1.17401 0.47414,0.51929 1.2418,0.51929 0.74507,0 1.2192,-0.51929 0.47413,-0.49672 0.47413,-1.17401 z"
       id="path1650-3" />
    <path
       d="m 87.11691,164.73733 h -3.1609 v 11.75027 h 3.1609 z"
       id="path10-3-7-6"
       style="stroke-width:1.01016" />
    <path
       inkscape:connector-curvature="0"
       id="path12-5-0-3"
       d="m 91.37691,166.30634 h -2.1449 v -1.58041 h 2.1449 v -3.61241 h 3.16088 v 3.61241 h 3.49958 v 1.58041 h -3.49958 v 5.87023 q 0,0.85796 0.18062,1.46761 0.2032,0.58702 0.51929,0.97084 0.33865,0.36124 0.76763,0.54187 0.42898,0.18063 0.90311,0.18063 0.67734,0 1.30949,-0.20321 0.63218,-0.22578 1.0612,-0.47413 l 0.67733,1.46761 q -0.67733,0.33867 -1.5579,0.56444 -0.85796,0.22579 -1.71589,0.22579 -2.55129,0 -3.92848,-1.26441 Q 91.377,174.3892 91.377,172.17659 Z" />
    <path
       inkscape:connector-curvature="0"
       id="path14-6-9-7"
       d="m 114.18687,176.46639 h -3.1609 v -7.11204 q 0,-1.62561 -0.8128,-2.32551 -0.8128,-0.72249 -2.3481,-0.72249 h -2.9351 v 10.16005 h -3.1609 v -15.80408 h 3.1609 v 4.06402 h 2.9351 q 3.2286,0 4.7639,1.174 1.5579,1.15151 1.5579,3.45442 z" />
    <text
       xml:space="preserve"
       style="font-size:10.5833px;line-height:1.25;font-family:sans-serif;stroke-width:0.264583"
       x="88.98336"
       y="181.11421"
       id="text18986-4"><tspan
         sodipodi:role="line"
         id="tspan18984-9"
         style="font-style:normal;font-variant:normal;font-weight:normal;font-stretch:normal;font-size:5.99722px;font-family:Prosto;-inkscape-font-specification:'Prosto, Normal';font-variant-ligatures:normal;font-variant-caps:normal;font-variant-numeric:normal;font-variant-east-asian:normal;stroke-width:0.264583"
         x="88.98336"
         y="181.11421">co</tspan></text>
  </g>
</svg>
